<svg width="67" height="32" viewBox="0 0 67 32" fill="none" xmlns="http://www.w3.org/2000/svg">
<path d="M66.0778 16.556C66.0778 12.0551 64.5267 8.37121 61.4217 5.50719C58.3195 2.64317 54.2866 1.21124 49.3286 1.21124H35.291V31.9953H48.9076C54.054 31.9953 58.2004 30.5632 61.3525 27.6992C64.5018 24.8351 66.0778 21.1208 66.0778 16.556ZM46.567 22.5751V10.6287H48.8134C50.6221 10.6287 52.0098 11.1494 52.9765 12.1937C53.9431 13.2351 54.4278 14.6892 54.4278 16.556C54.4278 18.4563 53.9375 19.9353 52.9544 20.9906C51.971 22.0488 50.5916 22.5751 48.8134 22.5751H46.567Z" fill="white"/>
<path d="M0 16.0457C0 20.641 1.52618 24.4522 4.57579 27.4714C7.62539 30.4904 11.4782 32 16.1371 32C20.8237 32 24.6988 30.4821 27.7649 27.4492C30.8284 24.4134 32.3601 20.5827 32.3601 15.9543C32.3601 11.3591 30.8284 7.54783 27.7649 4.5287C24.6988 1.50956 20.8237 0 16.1371 0C11.4782 0 7.62539 1.51788 4.57579 4.55085C1.52618 7.5866 0 11.4173 0 16.0457ZM21.1395 15.9543C21.1395 17.9375 20.6879 19.5301 19.7878 20.7323C18.8848 21.9343 17.6827 22.5355 16.1814 22.5355C14.6774 22.5355 13.4753 21.9343 12.5751 20.7323C11.6749 19.5301 11.2234 17.9375 11.2234 15.9543C11.2234 14.0016 11.6749 12.4311 12.5751 11.2456C13.4753 10.0573 14.6774 9.46456 16.1814 9.46456C17.6827 9.46456 18.8848 10.0573 19.7878 11.2456C20.6879 12.4311 21.1395 14.0016 21.1395 15.9543Z" fill="white"/>
</svg>
