<svg width="424" height="133" viewBox="0 0 424 133" fill="none" xmlns="http://www.w3.org/2000/svg">
<g clip-path="url(#clip0)">
<path d="M75.3983 100.871C75.3983 91.8606 72.1172 84.4856 65.5492 78.752C58.987 73.0183 50.4564 70.1516 39.9686 70.1516H10.2748V131.78H39.078C49.9642 131.78 58.7352 128.913 65.4028 123.18C72.0645 117.446 75.3983 110.01 75.3983 100.871ZM34.1271 112.921V89.005H38.8788C42.7048 89.005 45.6401 90.0475 47.6851 92.138C49.7296 94.223 50.755 97.134 50.755 100.871C50.755 104.676 49.7179 107.636 47.6382 109.749C45.5582 111.868 42.6403 112.921 38.8788 112.921H34.1271Z" fill="white"/>
<path d="M122.294 112.921H114.578V89.005H122.294V70.1516H83.103V89.005H90.8253V112.921H83.103V131.78H122.294V112.921Z" fill="white"/>
<path d="M166.817 114.502C162.751 114.502 159.558 113.265 157.238 110.803C154.917 108.335 153.757 104.997 153.757 100.783C153.757 96.8126 154.835 93.674 156.998 91.356C159.16 89.0383 162.083 87.8794 165.769 87.8794C168.059 87.8794 170.046 88.2119 171.727 88.8717C173.415 89.5373 175.366 90.7682 177.592 92.5761L191.894 78.408C189.099 75.3363 185.397 72.9906 180.785 71.3659C176.18 69.7467 170.854 68.9315 164.813 68.9315C154.771 68.9315 146.463 71.9702 139.883 78.0478C133.303 84.1195 130.017 91.7941 130.017 101.055C130.017 110.259 133.385 117.884 140.123 123.928C146.861 129.978 155.345 133 165.581 133C171.3 133 176.813 132.052 182.121 130.155C187.429 128.259 191.765 125.691 195.134 122.442V95.3708H166.343V109.267H174.159V113.148C173.204 113.57 172.061 113.897 170.725 114.141C169.39 114.379 168.089 114.502 166.817 114.502Z" fill="white"/>
<path d="M241.345 112.921H233.763V89.005H241.345V70.1516H202.856V89.005H210.438V112.921H202.856V131.78H241.345V112.921Z" fill="white"/>
<path d="M288.229 131.78V89.4653H304.171V70.1516H249.061V89.4653H264.904V131.78H288.229Z" fill="white"/>
<path d="M328.077 124.788H348.484L350.622 131.78H377.545L354.12 70.1516H324.479L301.248 131.78H325.938L328.077 124.788ZM338.277 92.0438L343.14 107.864H333.32L338.277 92.0438Z" fill="white"/>
<path d="M432.176 112.921H404.958V70.1516H381.533V131.78H432.176V112.921Z" fill="white"/>
<path d="M8.61087 32.3056C8.61087 41.5051 11.8392 49.135 18.2901 55.1793C24.7409 61.2233 32.8908 64.2455 42.7458 64.2455C52.6594 64.2455 60.8563 61.2067 67.342 55.135C73.8222 49.0574 77.0623 41.3884 77.0623 32.1226C77.0623 22.9232 73.8222 15.2931 67.342 9.24892C60.8563 3.20471 52.6594 0.182617 42.7458 0.182617C32.8908 0.182617 24.7409 3.22135 18.2901 9.29325C11.8392 15.3707 8.61087 23.0396 8.61087 32.3056ZM53.3273 32.1226C53.3273 36.0929 52.3722 39.2813 50.4681 41.688C48.5579 44.0944 46.0153 45.2979 42.8396 45.2979C39.658 45.2979 37.1152 44.0944 35.211 41.688C33.3068 39.2813 32.3518 36.0929 32.3518 32.1226C32.3518 28.2133 33.3068 25.0692 35.211 22.6958C37.1152 20.317 39.658 19.1303 42.8396 19.1303C46.0153 19.1303 48.5579 20.317 50.4681 22.6958C52.3722 25.0692 53.3273 28.2133 53.3273 32.1226Z" fill="white"/>
<path d="M148.9 62.8431L135.395 41.4109C138.7 39.4482 141.207 36.9694 142.924 33.9639C144.641 30.9585 145.502 27.5537 145.502 23.7553C145.502 16.6409 142.813 11.1069 137.434 7.14764C132.056 3.19397 124.538 1.21436 114.889 1.21436H83.103V62.8431H106.527V46.1966H111.678L121.591 62.8431H148.9ZM121.398 23.3838C121.398 24.9808 120.865 26.3449 119.793 27.4761C118.726 28.6129 117.478 29.1785 116.054 29.1785H106.527V18.2324H116.054C117.478 18.2324 118.726 18.7536 119.793 19.7961C120.865 20.8386 121.398 22.0363 121.398 23.3838Z" fill="white"/>
<path d="M178.553 55.8561H198.96L201.099 62.8431H228.021L204.596 1.21436H174.956L151.724 62.8431H176.414L178.553 55.8561ZM188.754 23.1065L193.617 38.9325H183.797L188.754 23.1065Z" fill="white"/>
<path d="M273.681 39.6144C272.029 41.4165 270.248 42.7862 268.343 43.7179C266.439 44.6495 264.435 45.115 262.338 45.115C258.775 45.115 255.951 43.9285 253.854 41.5498C251.756 39.1763 250.707 35.9713 250.707 31.94C250.707 28.1526 251.721 25.0363 253.754 22.6019C255.787 20.1677 258.394 18.9477 261.576 18.9477C263.416 18.9477 265.197 19.3248 266.914 20.0734C268.63 20.8275 270.189 21.9254 271.583 23.3727L286.366 9.56534C283.887 6.61535 280.466 4.28638 276.112 2.57294C271.759 0.859496 267.136 0 262.244 0C251.627 0 243.096 2.95001 236.646 8.8445C230.189 14.739 226.966 22.4966 226.966 32.123C226.966 41.8657 230.113 49.6289 236.405 55.4013C242.698 61.1793 251.182 64.063 261.863 64.063C267.072 64.063 271.87 63.1036 276.259 61.1793C280.641 59.2499 284.455 56.4549 287.696 52.784L273.681 39.6144Z" fill="white"/>
<path d="M344.265 43.9894H317.049V1.21436H293.625V62.8431H344.265V43.9894Z" fill="white"/>
<path d="M375.406 45.8305V40.4906H397.467V23.4781H375.406V18.2324H404.958V1.21436H351.981V62.8431H404.958V45.8305H375.406Z" fill="white"/>
</g>
<defs>
<clipPath id="clip0">
<rect width="424" height="133" fill="white"/>
</clipPath>
</defs>
</svg>
