<svg width="400" height="133" viewBox="0 0 400 133" fill="none" xmlns="http://www.w3.org/2000/svg">
<g clip-path="url(#clip0)">
<path d="M71.1305 100.654C71.1305 91.6625 68.0352 84.3035 61.8389 78.5822C55.6482 72.8609 47.6004 70.0004 37.7062 70.0004H9.6933V131.496H36.8661C47.1361 131.496 55.4106 128.635 61.7008 122.914C67.9855 117.193 71.1305 109.773 71.1305 100.654ZM32.1954 112.678V88.8131H36.6781C40.2876 88.8131 43.0568 89.8533 44.986 91.9394C46.9148 94.0198 47.8821 96.9246 47.8821 100.654C47.8821 104.45 46.9037 107.404 44.9418 109.512C42.9795 111.626 40.2268 112.678 36.6781 112.678H32.1954Z" fill="white"/>
<path d="M115.372 112.678H108.092V88.8131H115.372V70.0004H78.399V88.8131H85.6842V112.678H78.399V131.496H115.372V112.678Z" fill="white"/>
<path d="M157.375 114.255C153.539 114.255 150.526 113.021 148.337 110.564C146.149 108.102 145.054 104.771 145.054 100.565C145.054 96.6038 146.071 93.472 148.111 91.159C150.151 88.8463 152.909 87.6899 156.385 87.6899C158.547 87.6899 160.421 88.0217 162.007 88.6801C163.599 89.3443 165.439 90.5725 167.54 92.3765L181.032 78.239C178.396 75.1739 174.902 72.8332 170.552 71.212C166.208 69.5964 161.183 68.7828 155.484 68.7828C146.01 68.7828 138.173 71.8151 131.965 77.8795C125.758 83.9382 122.657 91.5962 122.657 100.837C122.657 110.022 125.835 117.63 132.192 123.661C138.549 129.698 146.552 132.713 156.209 132.713C161.603 132.713 166.805 131.767 171.813 129.875C176.82 127.982 180.911 125.42 184.089 122.178V95.1651H156.927V109.031H164.301V112.904C163.4 113.325 162.322 113.651 161.062 113.895C159.802 114.133 158.574 114.255 157.375 114.255Z" fill="white"/>
<path d="M227.684 112.678H220.531V88.8131H227.684V70.0004H191.374V88.8131H198.526V112.678H191.374V131.496H227.684V112.678Z" fill="white"/>
<path d="M271.914 131.496V89.2724H286.954V70.0004H234.963V89.2724H249.909V131.496H271.914Z" fill="white"/>
<path d="M309.506 124.519H328.758L330.775 131.496H356.174L334.075 70.0004H306.112L284.196 131.496H307.489L309.506 124.519ZM319.129 91.8454L323.717 107.631H314.453L319.129 91.8454Z" fill="white"/>
<path d="M407.713 112.678H382.036V70.0004H359.937V131.496H407.713V112.678Z" fill="white"/>
<path d="M8.12347 32.2363C8.12347 41.416 11.1691 49.0294 17.2548 55.0607C23.3405 61.0917 31.0291 64.1073 40.3262 64.1073C49.6787 64.1073 57.4116 61.0751 63.5302 55.0165C69.6436 48.952 72.7003 41.2995 72.7003 32.0537C72.7003 22.8742 69.6436 15.2605 63.5302 9.22937C57.4116 3.1982 49.6787 0.182617 40.3262 0.182617C31.0291 0.182617 23.3405 3.2148 17.2548 9.27361C11.1691 15.338 8.12347 22.9904 8.12347 32.2363ZM50.3088 32.0537C50.3088 36.0154 49.4077 39.1969 47.6114 41.5985C45.8093 43.9997 43.4106 45.2006 40.4147 45.2006C37.4133 45.2006 35.0144 43.9997 33.218 41.5985C31.4215 39.1969 30.5206 36.0154 30.5206 32.0537C30.5206 28.1528 31.4215 25.0155 33.218 22.6473C35.0144 20.2736 37.4133 19.0895 40.4147 19.0895C43.4106 19.0895 45.8093 20.2736 47.6114 22.6473C49.4077 25.0155 50.3088 28.1528 50.3088 32.0537Z" fill="white"/>
<path d="M140.472 62.7076L127.731 41.3216C130.849 39.3631 133.214 36.8897 134.834 33.8907C136.454 30.8917 137.266 27.4944 137.266 23.7042C137.266 16.6051 134.729 11.083 129.655 7.13228C124.581 3.18714 117.489 1.21179 108.385 1.21179H78.399V62.7076H100.498V46.097H105.356L114.709 62.7076H140.472ZM114.526 23.3334C114.526 24.927 114.023 26.2881 113.012 27.4169C112.006 28.5512 110.828 29.1156 109.485 29.1156H100.498V18.1931H109.485C110.828 18.1931 112.006 18.7132 113.012 19.7535C114.023 20.7937 114.526 21.9889 114.526 23.3334Z" fill="white"/>
<path d="M168.446 55.7357H187.698L189.716 62.7076H215.114L193.015 1.21179H165.053L143.136 62.7076H166.429L168.446 55.7357ZM178.07 23.0568L182.657 38.8486H173.393L178.07 23.0568Z" fill="white"/>
<path d="M258.189 39.529C256.631 41.3271 254.951 42.694 253.154 43.6236C251.358 44.5532 249.467 45.0177 247.488 45.0177C244.128 45.0177 241.464 43.8337 239.485 41.4602C237.506 39.0918 236.516 35.8937 236.516 31.8711C236.516 28.0919 237.473 24.9823 239.391 22.5532C241.309 20.1242 243.768 18.9068 246.77 18.9068C248.505 18.9068 250.186 19.2831 251.805 20.0301C253.425 20.7826 254.895 21.8782 256.211 23.3223L270.156 9.54471C267.818 6.60108 264.59 4.27714 260.483 2.56739C256.376 0.857643 252.015 0 247.4 0C237.384 0 229.336 2.94365 223.251 8.82543C217.159 14.7072 214.119 22.4481 214.119 32.0537C214.119 41.7754 217.088 49.5219 223.024 55.2819C228.961 61.0474 236.964 63.9248 247.041 63.9248C251.955 63.9248 256.482 62.9675 260.622 61.0474C264.756 59.1221 268.354 56.3332 271.411 52.6702L258.189 39.529Z" fill="white"/>
<path d="M324.778 43.8946H299.103V1.21179H277.005V62.7076H324.778V43.8946Z" fill="white"/>
<path d="M354.156 45.7317V40.4034H374.969V23.4275H354.156V18.1931H382.036V1.21179H332.058V62.7076H382.036V45.7317H354.156Z" fill="white"/>
<path d="M407.706 1.21179H387.355V107.355H407.706V1.21179Z" fill="#5699E8"/>
</g>
<defs>
<clipPath id="clip0">
<rect width="400" height="132.713" fill="white"/>
</clipPath>
</defs>
</svg>
