<svg width="32" height="32" viewBox="0 0 32 32" fill="none" xmlns="http://www.w3.org/2000/svg">
<path d="M16 18.6665C18.2091 18.6665 20 16.8756 20 14.6665C20 12.4574 18.2091 10.6665 16 10.6665C13.7909 10.6665 12 12.4574 12 14.6665C12 16.8756 13.7909 18.6665 16 18.6665Z" stroke="white" stroke-width="1.2" stroke-linecap="round" stroke-linejoin="round"/>
<path d="M23.5427 22.2094L17.8853 27.8668C17.3853 28.3663 16.7074 28.6469 16.0007 28.6469C15.2939 28.6469 14.616 28.3663 14.116 27.8668L8.45733 22.2094C6.96563 20.7177 5.94978 18.817 5.53825 16.7479C5.12672 14.6788 5.33799 12.5341 6.14534 10.5851C6.95269 8.63603 8.31986 6.97015 10.074 5.79811C11.8281 4.62606 13.8904 4.00049 16 4.00049C18.1096 4.00049 20.1719 4.62606 21.926 5.79811C23.6801 6.97015 25.0473 8.63603 25.8547 10.5851C26.662 12.5341 26.8733 14.6788 26.4618 16.7479C26.0502 18.817 25.0344 20.7177 23.5427 22.2094V22.2094Z" stroke="white" stroke-width="1.2" stroke-linecap="round" stroke-linejoin="round"/>
</svg>
